<svg xmlns="http://www.w3.org/2000/svg" viewBox="0 0 1024 1024" width="1024" height="1024" role="img" aria-label="Indian Fox, adult (mock illustration)">
<defs><radialGradient id="glow" cx="50%" cy="48%" r="55%"><stop offset="0" stop-color="#fff" stop-opacity="0.95"/><stop offset="0.55" stop-color="#D1A233" stop-opacity="0.35"/><stop offset="1" stop-color="#F3E3B8" stop-opacity="0"/></radialGradient></defs>
<rect width="1024" height="1024" fill="#F3E3B8"/><line x1="512" y1="500" x2="982" y2="500" stroke="#D1A233" stroke-opacity="0.08" stroke-width="18" stroke-linecap="round"/><line x1="512" y1="500" x2="919" y2="735" stroke="#D1A233" stroke-opacity="0.08" stroke-width="18" stroke-linecap="round"/><line x1="512" y1="500" x2="747" y2="907" stroke="#D1A233" stroke-opacity="0.08" stroke-width="18" stroke-linecap="round"/><line x1="512" y1="500" x2="512" y2="970" stroke="#D1A233" stroke-opacity="0.08" stroke-width="18" stroke-linecap="round"/><line x1="512" y1="500" x2="277" y2="907" stroke="#D1A233" stroke-opacity="0.08" stroke-width="18" stroke-linecap="round"/><line x1="512" y1="500" x2="105" y2="735" stroke="#D1A233" stroke-opacity="0.08" stroke-width="18" stroke-linecap="round"/><line x1="512" y1="500" x2="42" y2="500" stroke="#D1A233" stroke-opacity="0.08" stroke-width="18" stroke-linecap="round"/><line x1="512" y1="500" x2="105" y2="265" stroke="#D1A233" stroke-opacity="0.08" stroke-width="18" stroke-linecap="round"/><line x1="512" y1="500" x2="277" y2="93" stroke="#D1A233" stroke-opacity="0.08" stroke-width="18" stroke-linecap="round"/><line x1="512" y1="500" x2="512" y2="30" stroke="#D1A233" stroke-opacity="0.08" stroke-width="18" stroke-linecap="round"/><line x1="512" y1="500" x2="747" y2="93" stroke="#D1A233" stroke-opacity="0.08" stroke-width="18" stroke-linecap="round"/><line x1="512" y1="500" x2="919" y2="265" stroke="#D1A233" stroke-opacity="0.08" stroke-width="18" stroke-linecap="round"/><circle cx="512" cy="500" r="400" fill="url(#glow)"/>
<ellipse cx="512" cy="860" rx="253.00000000000003" ry="26" fill="#4E3B10" opacity="0.12"/>
<rect x="374" y="650" width="46" height="120" rx="22" fill="#4E3B10"/><rect x="604" y="650" width="46" height="120" rx="22" fill="#4E3B10"/>
<path d="M719 560 q62 -62 24.8 -99.2" stroke="#4E3B10" stroke-width="30" fill="none" stroke-linecap="round"/>
<ellipse cx="512" cy="560" rx="230" ry="150" fill="#4E3B10"/>
<circle cx="438.5" cy="326.5" r="36.75" fill="#4E3B10"/><circle cx="585.5" cy="326.5" r="36.75" fill="#4E3B10"/><circle cx="512" cy="400" r="105" fill="#4E3B10"/>
<circle cx="475.25" cy="390" r="10" fill="#F3E3B8"/><circle cx="548.75" cy="390" r="10" fill="#F3E3B8"/>
<ellipse cx="512" cy="430" rx="29.400000000000002" ry="18.9" fill="#D1A233"/>
<path d="M222 444 L224.8 449.2 L230 452 L224.8 454.8 L222 460 L219.2 454.8 L214 452 L219.2 449.2Z" fill="#fff" opacity="0.9"/><path d="M620 594 L623.85 601.15 L631 605 L623.85 608.85 L620 616 L616.15 608.85 L609 605 L616.15 601.15Z" fill="#fff" opacity="0.9"/><path d="M377 532 L381.2 539.8 L389 544 L381.2 548.2 L377 556 L372.8 548.2 L365 544 L372.8 539.8Z" fill="#fff" opacity="0.9"/><path d="M249 91 L253.55 99.45 L262 104 L253.55 108.55 L249 117 L244.45 108.55 L236 104 L244.45 99.45Z" fill="#fff" opacity="0.9"/><path d="M233 130 L236.15 135.85 L242 139 L236.15 142.15 L233 148 L229.85 142.15 L224 139 L229.85 135.85Z" fill="#fff" opacity="0.9"/><path d="M134 133 L136.45 137.55 L141 140 L136.45 142.45 L134 147 L131.55 142.45 L127 140 L131.55 137.55Z" fill="#fff" opacity="0.9"/><path d="M316 81 L319.5 87.5 L326 91 L319.5 94.5 L316 101 L312.5 94.5 L306 91 L312.5 87.5Z" fill="#fff" opacity="0.9"/>
<text x="1000" y="1004" font-family="monospace" font-size="22" fill="#4E3B10" opacity="0.35" text-anchor="end">mock · adult</text>
</svg>