<svg xmlns="http://www.w3.org/2000/svg" viewBox="0 0 1024 1024" width="1024" height="1024" role="img" aria-label="Elephant, young (mock illustration)">
<defs><radialGradient id="glow" cx="50%" cy="48%" r="55%"><stop offset="0" stop-color="#fff" stop-opacity="0.95"/><stop offset="0.55" stop-color="#C76A4E" stop-opacity="0.35"/><stop offset="1" stop-color="#F1DCD1" stop-opacity="0"/></radialGradient></defs>
<rect width="1024" height="1024" fill="#F1DCD1"/><line x1="512" y1="500" x2="982" y2="500" stroke="#C76A4E" stroke-opacity="0.08" stroke-width="18" stroke-linecap="round"/><line x1="512" y1="500" x2="919" y2="735" stroke="#C76A4E" stroke-opacity="0.08" stroke-width="18" stroke-linecap="round"/><line x1="512" y1="500" x2="747" y2="907" stroke="#C76A4E" stroke-opacity="0.08" stroke-width="18" stroke-linecap="round"/><line x1="512" y1="500" x2="512" y2="970" stroke="#C76A4E" stroke-opacity="0.08" stroke-width="18" stroke-linecap="round"/><line x1="512" y1="500" x2="277" y2="907" stroke="#C76A4E" stroke-opacity="0.08" stroke-width="18" stroke-linecap="round"/><line x1="512" y1="500" x2="105" y2="735" stroke="#C76A4E" stroke-opacity="0.08" stroke-width="18" stroke-linecap="round"/><line x1="512" y1="500" x2="42" y2="500" stroke="#C76A4E" stroke-opacity="0.08" stroke-width="18" stroke-linecap="round"/><line x1="512" y1="500" x2="105" y2="265" stroke="#C76A4E" stroke-opacity="0.08" stroke-width="18" stroke-linecap="round"/><line x1="512" y1="500" x2="277" y2="93" stroke="#C76A4E" stroke-opacity="0.08" stroke-width="18" stroke-linecap="round"/><line x1="512" y1="500" x2="512" y2="30" stroke="#C76A4E" stroke-opacity="0.08" stroke-width="18" stroke-linecap="round"/><line x1="512" y1="500" x2="747" y2="93" stroke="#C76A4E" stroke-opacity="0.08" stroke-width="18" stroke-linecap="round"/><line x1="512" y1="500" x2="919" y2="265" stroke="#C76A4E" stroke-opacity="0.08" stroke-width="18" stroke-linecap="round"/><circle cx="512" cy="500" r="400" fill="url(#glow)"/>
<ellipse cx="512" cy="860" rx="220.00000000000003" ry="26" fill="#5B2F22" opacity="0.12"/>
<rect x="392" y="650" width="46" height="120" rx="22" fill="#5B2F22"/><rect x="586" y="650" width="46" height="120" rx="22" fill="#5B2F22"/>
<path d="M692 560 q70 -70 28 -112" stroke="#5B2F22" stroke-width="30" fill="none" stroke-linecap="round"/>
<ellipse cx="512" cy="560" rx="200" ry="150" fill="#5B2F22"/>
<circle cx="428" cy="316" r="42" fill="#5B2F22"/><circle cx="596" cy="316" r="42" fill="#5B2F22"/><circle cx="512" cy="400" r="120" fill="#5B2F22"/>
<circle cx="470" cy="390" r="10" fill="#F1DCD1"/><circle cx="554" cy="390" r="10" fill="#F1DCD1"/>
<ellipse cx="512" cy="430" rx="33.6" ry="21.599999999999998" fill="#C76A4E"/>
<path d="M104 -190 L105.4 -187.4 L108 -186 L105.4 -184.6 L104 -182 L102.6 -184.6 L100 -186 L102.6 -187.4Z" fill="#fff" opacity="0.9"/><path d="M20 -390 L20 -390 L20 -390 L20 -390 L20 -390 L20 -390 L20 -390 L20 -390Z" fill="#fff" opacity="0.9"/><path d="M-380 77 L-380.7 75.7 L-382 75 L-380.7 74.3 L-380 73 L-379.3 74.3 L-378 75 L-379.3 75.7Z" fill="#fff" opacity="0.9"/><path d="M-430 -253 L-429.65 -252.35 L-429 -252 L-429.65 -251.65 L-430 -251 L-430.35 -251.65 L-431 -252 L-430.35 -252.35Z" fill="#fff" opacity="0.9"/><path d="M-534 -330 L-532.95 -328.05 L-531 -327 L-532.95 -325.95 L-534 -324 L-535.05 -325.95 L-537 -327 L-535.05 -328.05Z" fill="#fff" opacity="0.9"/><path d="M38 72 L39.4 74.6 L42 76 L39.4 77.4 L38 80 L36.6 77.4 L34 76 L36.6 74.6Z" fill="#fff" opacity="0.9"/><path d="M12 89 L12 89 L12 89 L12 89 L12 89 L12 89 L12 89 L12 89Z" fill="#fff" opacity="0.9"/>
<text x="1000" y="1004" font-family="monospace" font-size="22" fill="#5B2F22" opacity="0.35" text-anchor="end">mock · young</text>
</svg>